<svg width="158" height="155" xmlns="http://www.w3.org/2000/svg">
 <!-- Created with Method Draw - http://github.com/duopixel/Method-Draw/ -->
 <g>
  <title>background</title>
  <rect fill="none" id="canvas_background" height="157" width="160" y="-1" x="-1"/>
  <g display="none" id="canvasGrid">
   <rect fill="none" stroke-width="0" y="0" x="0" height="100%" width="100%"/>
  </g>
 </g>
 <g>
  <title>Layer 1</title>
  <path stroke="none" id="svg_1" d="m78.750021,0.749998c-43.078721,0 -78.000016,34.473574 -78.000016,76.999988c0,42.526414 34.921295,76.999988 78.000016,76.999988c43.078721,0 78.000016,-34.473574 78.000016,-76.999988c0,-42.526414 -34.921295,-76.999988 -78.000016,-76.999988zm0,138.100913c-34.137753,0 -61.899834,-27.411445 -61.899834,-61.100926c0,-33.694779 27.762081,-61.106224 61.899834,-61.106224c34.137753,0 61.894467,27.406147 61.894467,61.106224c0,33.700077 -27.767448,61.100926 -61.894467,61.100926zm-0.005367,-118.71582c-2.9678,0 -5.361361,2.373469 -5.361361,5.297921l0,48.852132l-32.447234,14.007704c-2.715564,1.176139 -3.949911,4.301912 -2.758498,6.98266c0.880143,1.98672 2.844366,3.173455 4.910556,3.173455c0.719141,0 1.454383,-0.143044 2.152058,-0.450323l35.559936,-15.353376c0.026834,-0.010596 0.048301,-0.021192 0.069767,-0.031788l0.021467,-0.010596c0.080501,-0.031788 0.123435,-0.105958 0.198569,-0.132448c0.55814,-0.275492 1.078712,-0.598665 1.497317,-1.033095c0.182469,-0.180129 0.284437,-0.413238 0.423971,-0.619857c0.257603,-0.339067 0.542039,-0.672836 0.697675,-1.080776c0.128801,-0.317875 0.139535,-0.66224 0.203936,-1.001307c0.069767,-0.344365 0.203936,-0.646346 0.203936,-0.990711l0,-52.316972c0,-2.919155 -2.404294,-5.292623 -5.372094,-5.292623z" stroke-width="1.5" fill="#86cb92"/>
 </g>
</svg>
