<?xml version="1.0" encoding="UTF-8" standalone="no"?>
<svg
   xmlns:dc="http://purl.org/dc/elements/1.1/"
   xmlns:cc="http://creativecommons.org/ns#"
   xmlns:rdf="http://www.w3.org/1999/02/22-rdf-syntax-ns#"
   xmlns:svg="http://www.w3.org/2000/svg"
   xmlns="http://www.w3.org/2000/svg"
   xmlns:sodipodi="http://sodipodi.sourceforge.net/DTD/sodipodi-0.dtd"
   xmlns:inkscape="http://www.inkscape.org/namespaces/inkscape"
   width="121.00714mm"
   height="144.81964mm"
   viewBox="0 0 121.00714 144.81964"
   version="1.1"
   id="svg8"
   inkscape:version="1.0.2-2 (e86c870879, 2021-01-15)"
   sodipodi:docname="copy.svg">
  <defs
     id="defs2">
    <inkscape:path-effect
       effect="powerclip"
       id="path-effect951"
       is_visible="true"
       lpeversion="1"
       inverse="true"
       flatten="false"
       hide_clip="false"
       message="Use fill-rule evenodd on &lt;b&gt;fill and stroke&lt;/b&gt; dialog if no flatten result after convert clip to paths." />
    <inkscape:path-effect
       effect="powerclip"
       id="path-effect937"
       is_visible="true"
       lpeversion="1"
       inverse="true"
       flatten="false"
       hide_clip="false"
       message="Use fill-rule evenodd on &lt;b&gt;fill and stroke&lt;/b&gt; dialog if no flatten result after convert clip to paths." />
    <inkscape:path-effect
       effect="powerclip"
       id="path-effect923"
       is_visible="true"
       lpeversion="1"
       inverse="true"
       flatten="false"
       hide_clip="false"
       message="Use fill-rule evenodd on &lt;b&gt;fill and stroke&lt;/b&gt; dialog if no flatten result after convert clip to paths." />
    <clipPath
       clipPathUnits="userSpaceOnUse"
       id="clipPath913">
      <g
         id="g921"
         style="display:none">
        <path
           id="path915"
           style="opacity:0.996;fill:#f9f9f9;fill-opacity:1;stroke:whitesmoke;stroke-width:0;stroke-miterlimit:4;stroke-dasharray:none;stroke-opacity:1"
           d="m 109.61309,67.279762 h 52.91667 c 2.51278,0 4.53571,2.022929 4.53571,4.535714 0,2.512786 -2.02293,4.535715 -4.53571,4.535715 h -52.91667 c -2.51278,0 -4.53571,-2.022929 -4.53571,-4.535715 0,-2.512785 2.02293,-4.535714 4.53571,-4.535714 z" />
        <path
           id="path917"
           style="opacity:0.996;fill:#f9f9f9;fill-opacity:1;stroke:whitesmoke;stroke-width:0;stroke-miterlimit:4;stroke-dasharray:none;stroke-opacity:1"
           d="m 109.12738,83.424988 h 52.91667 c 2.51278,0 4.53571,2.022928 4.53571,4.535714 0,2.512786 -2.02293,4.535714 -4.53571,4.535714 h -52.91667 c -2.51278,0 -4.53571,-2.022928 -4.53571,-4.535714 0,-2.512786 2.02293,-4.535714 4.53571,-4.535714 z" />
        <path
           id="path919"
           style="opacity:0.996;fill:#f9f9f9;fill-opacity:1;stroke:whitesmoke;stroke-width:0;stroke-miterlimit:4;stroke-dasharray:none;stroke-opacity:1"
           d="m 109.12738,99.375595 h 52.91667 c 2.51278,0 4.53571,2.022925 4.53571,4.535715 0,2.51278 -2.02293,4.53571 -4.53571,4.53571 h -52.91667 c -2.51278,0 -4.53571,-2.02293 -4.53571,-4.53571 0,-2.51279 2.02293,-4.535715 4.53571,-4.535715 z" />
      </g>
      <path
         id="lpe_path-effect923"
         class="powerclip"
         d="M 55.205951,21.944047 H 156.46071 V 151.16905 H 55.205951 Z m 54.407139,45.335715 c -2.51278,0 -4.53571,2.022929 -4.53571,4.535714 0,2.512786 2.02293,4.535715 4.53571,4.535715 h 52.91667 c 2.51278,0 4.53571,-2.022929 4.53571,-4.535715 0,-2.512785 -2.02293,-4.535714 -4.53571,-4.535714 z m -0.48571,16.145226 c -2.51278,0 -4.53571,2.022928 -4.53571,4.535714 0,2.512786 2.02293,4.535714 4.53571,4.535714 h 52.91667 c 2.51278,0 4.53571,-2.022928 4.53571,-4.535714 0,-2.512786 -2.02293,-4.535714 -4.53571,-4.535714 z m 0,15.950607 c -2.51278,0 -4.53571,2.022925 -4.53571,4.535715 0,2.51278 2.02293,4.53571 4.53571,4.53571 h 52.91667 c 2.51278,0 4.53571,-2.02293 4.53571,-4.53571 0,-2.51279 -2.02293,-4.535715 -4.53571,-4.535715 z" />
    </clipPath>
    <clipPath
       clipPathUnits="userSpaceOnUse"
       id="clipPath927">
      <g
         id="g935"
         transform="translate(0.24285867,0.02228802)"
         style="display:none">
        <path
           id="path929"
           style="opacity:0.996;fill:#f9f9f9;fill-opacity:1;stroke:whitesmoke;stroke-width:0;stroke-miterlimit:4;stroke-dasharray:none;stroke-opacity:1"
           d="m 109.61309,67.279762 h 52.91667 c 2.51278,0 4.53571,2.022929 4.53571,4.535714 0,2.512786 -2.02293,4.535715 -4.53571,4.535715 h -52.91667 c -2.51278,0 -4.53571,-2.022929 -4.53571,-4.535715 0,-2.512785 2.02293,-4.535714 4.53571,-4.535714 z" />
        <path
           id="path931"
           style="opacity:0.996;fill:#f9f9f9;fill-opacity:1;stroke:whitesmoke;stroke-width:0;stroke-miterlimit:4;stroke-dasharray:none;stroke-opacity:1"
           d="m 109.12738,83.424988 h 52.91667 c 2.51278,0 4.53571,2.022928 4.53571,4.535714 0,2.512786 -2.02293,4.535714 -4.53571,4.535714 h -52.91667 c -2.51278,0 -4.53571,-2.022928 -4.53571,-4.535714 0,-2.512786 2.02293,-4.535714 4.53571,-4.535714 z" />
        <path
           id="path933"
           style="opacity:0.996;fill:#f9f9f9;fill-opacity:1;stroke:whitesmoke;stroke-width:0;stroke-miterlimit:4;stroke-dasharray:none;stroke-opacity:1"
           d="m 109.12738,99.375595 h 52.91667 c 2.51278,0 4.53571,2.022925 4.53571,4.535715 0,2.51278 -2.02293,4.53571 -4.53571,4.53571 h -52.91667 c -2.51278,0 -4.53571,-2.02293 -4.53571,-4.53571 0,-2.51279 2.02293,-4.535715 4.53571,-4.535715 z" />
      </g>
      <path
         id="lpe_path-effect937"
         class="powerclip"
         d="M 84.958331,47.538688 H 186.21309 V 176.76369 H 84.958331 Z m 24.654759,19.741074 c -2.51278,0 -4.53571,2.022929 -4.53571,4.535714 0,2.512786 2.02293,4.535715 4.53571,4.535715 h 52.91667 c 2.51278,0 4.53571,-2.022929 4.53571,-4.535715 0,-2.512785 -2.02293,-4.535714 -4.53571,-4.535714 z m -0.48571,16.145226 c -2.51278,0 -4.53571,2.022928 -4.53571,4.535714 0,2.512786 2.02293,4.535714 4.53571,4.535714 h 52.91667 c 2.51278,0 4.53571,-2.022928 4.53571,-4.535714 0,-2.512786 -2.02293,-4.535714 -4.53571,-4.535714 z m 0,15.950607 c -2.51278,0 -4.53571,2.022925 -4.53571,4.535715 0,2.51278 2.02293,4.53571 4.53571,4.53571 h 52.91667 c 2.51278,0 4.53571,-2.02293 4.53571,-4.53571 0,-2.51279 -2.02293,-4.535715 -4.53571,-4.535715 z" />
    </clipPath>
    <clipPath
       clipPathUnits="userSpaceOnUse"
       id="clipPath941">
      <g
         id="g949"
         style="display:none">
        <rect
           style="opacity:0.996;fill:whitesmoke;stroke:#a5ccd1;stroke-width:0;stroke-miterlimit:4;stroke-dasharray:none"
           id="rect943"
           width="39.498516"
           height="11.483695"
           x="116.32217"
           y="66.357109"
           d="m 116.32217,66.357109 h 39.49851 v 11.483695 h -39.49851 z" />
        <rect
           style="opacity:0.996;fill:whitesmoke;stroke:#a5ccd1;stroke-width:0;stroke-miterlimit:4;stroke-dasharray:none"
           id="rect945"
           width="39.498516"
           height="11.483695"
           x="115.93681"
           y="82.326607"
           d="m 115.93681,82.326607 h 39.49852 v 11.483695 h -39.49852 z" />
        <rect
           style="opacity:0.996;fill:whitesmoke;stroke:#a5ccd1;stroke-width:0;stroke-miterlimit:4;stroke-dasharray:none"
           id="rect947"
           width="39.498516"
           height="11.483695"
           x="115.91958"
           y="98.25666"
           d="m 115.91958,98.25666 h 39.49851 v 11.4837 h -39.49851 z" />
      </g>
      <path
         id="lpe_path-effect951"
         class="powerclip"
         d="M 55.205951,21.944047 H 156.46071 V 151.16905 H 55.205951 Z m 61.116219,44.413062 v 11.483695 h 39.49851 V 66.357109 Z m -0.38536,15.969498 v 11.483695 h 39.49852 V 82.326607 Z m -0.0172,15.930053 v 11.4837 h 39.49851 v -11.4837 z" />
    </clipPath>
  </defs>
  <sodipodi:namedview
     id="base"
     pagecolor="#ffffff"
     bordercolor="#666666"
     borderopacity="1.0"
     inkscape:pageopacity="0"
     inkscape:pageshadow="2"
     inkscape:zoom="1.4"
     inkscape:cx="229.70018"
     inkscape:cy="291.6465"
     inkscape:document-units="mm"
     inkscape:current-layer="g862"
     inkscape:document-rotation="0"
     showgrid="false"
     inkscape:snap-bbox="true"
     inkscape:bbox-paths="true"
     inkscape:bbox-nodes="true"
     inkscape:snap-bbox-edge-midpoints="true"
     inkscape:snap-bbox-midpoints="true"
     inkscape:window-width="1920"
     inkscape:window-height="1017"
     inkscape:window-x="-8"
     inkscape:window-y="-8"
     inkscape:window-maximized="1"
     inkscape:snap-global="true" />
  <metadata
     id="metadata5">
    <rdf:RDF>
      <cc:Work
         rdf:about="">
        <dc:format>image/svg+xml</dc:format>
        <dc:type
           rdf:resource="http://purl.org/dc/dcmitype/StillImage" />
        <dc:title />
      </cc:Work>
    </rdf:RDF>
  </metadata>
  <g
     inkscape:label="Layer 1"
     inkscape:groupmode="layer"
     id="layer1"
     transform="translate(-60.205951,-26.944047)">
    <g
       id="g862">
      <g
         id="g870">
        <path
           id="rect833"
           style="opacity:0.996;fill:whitesmoke;fill-opacity:0;stroke:whitesmoke;stroke-width:8.1;stroke-miterlimit:4;stroke-dasharray:none;stroke-opacity:1"
           d="m 77.863093,30.994047 h 55.940477 c 7.53836,0 13.60714,6.068786 13.60714,13.607143 v 83.91071 c 0,7.53836 -6.06878,13.60715 -13.60714,13.60715 H 77.863093 c -7.538357,0 -13.607142,-6.06879 -13.607142,-13.60715 V 44.60119 c 0,-7.538357 6.068785,-13.607143 13.607142,-13.607143 z"
           clip-path="url(#clipPath941)"
           inkscape:original-d="m 77.863093,30.994047 h 55.940477 c 7.53836,0 13.60714,6.068786 13.60714,13.607143 v 83.91071 c 0,7.53836 -6.06878,13.60715 -13.60714,13.60715 H 77.863093 c -7.538357,0 -13.607142,-6.06879 -13.607142,-13.60715 V 44.60119 c 0,-7.538357 6.068785,-13.607143 13.607142,-13.607143 z"
           inkscape:path-effect="#path-effect923;#path-effect951" />
        <path
           id="rect833-1"
           style="opacity:0.996;fill:whitesmoke;fill-opacity:1;stroke:whitesmoke;stroke-width:8.1;stroke-miterlimit:4;stroke-dasharray:none;stroke-opacity:1"
           d="m 107.61547,56.588688 h 55.94048 c 7.53836,0 13.60714,6.068785 13.60714,13.607142 v 83.91072 c 0,7.53835 -6.06878,13.60714 -13.60714,13.60714 h -55.94048 c -7.53835,0 -13.607139,-6.06879 -13.607139,-13.60714 V 70.19583 c 0,-7.538357 6.068789,-13.607142 13.607139,-13.607142 z"
           clip-path="url(#clipPath927)"
           inkscape:original-d="m 107.61547,56.588688 h 55.94048 c 7.53836,0 13.60714,6.068785 13.60714,13.607142 v 83.91072 c 0,7.53835 -6.06878,13.60714 -13.60714,13.60714 h -55.94048 c -7.53835,0 -13.607139,-6.06879 -13.607139,-13.60714 V 70.19583 c 0,-7.538357 6.068789,-13.607142 13.607139,-13.607142 z"
           inkscape:path-effect="#path-effect937" />
        <path
           style="opacity:0.996;fill:#cfced2;fill-opacity:0;stroke:whitesmoke;stroke-width:0;stroke-miterlimit:4;stroke-dasharray:none;stroke-opacity:1"
           d="m 181.02138,183.03773 c -5.53501,-2.80025 -7.14286,-5.82668 -7.14286,-13.44493 0,-16.70234 2.35705,-17.05861 112.85714,-17.05861 110.5001,0 112.85715,0.35627 112.85715,17.05861 0,16.70235 -2.35705,17.05862 -112.85715,17.05862 -73.8022,0 -100.3663,-0.90805 -105.71428,-3.61369 z"
           id="path953"
           transform="matrix(0.26458333,0,0,0.26458333,60.205951,26.944047)" />
        <path
           style="opacity:0.996;fill:#cfced2;fill-opacity:0;stroke:whitesmoke;stroke-width:0;stroke-miterlimit:4;stroke-dasharray:none;stroke-opacity:1"
           d="m 174.32134,241.51069 c -5.9592,-6.58484 -6.06152,-15.89102 -0.23874,-21.7138 3.92103,-3.92103 17.98077,-4.4898 110.98575,-4.4898 99.543,0 106.80467,0.34113 111.22449,5.22497 6.28388,6.94361 5.96667,13.53689 -0.98575,20.48931 -5.5075,5.5075 -9.52381,5.71429 -110.98575,5.71429 -98.35673,0 -105.58205,-0.3432 -110,-5.22497 z"
           id="path955"
           transform="matrix(0.26458333,0,0,0.26458333,60.205951,26.944047)" />
        <path
           style="opacity:0.996;fill:#cfced2;fill-opacity:0;stroke:whitesmoke;stroke-width:0;stroke-miterlimit:4;stroke-dasharray:none;stroke-opacity:1"
           d="m 174.32134,301.51069 c -6.21551,-6.86807 -5.99825,-15.59745 0.53536,-21.51029 4.74851,-4.29734 15.71793,-4.69038 112.03415,-4.01425 l 106.77025,0.74951 4.22446,7.52791 c 3.7896,6.753 3.72048,8.29708 -0.67144,15 l -4.8959,7.47209 H 285.68405 c -99.6769,0 -106.94268,-0.3409 -111.36271,-5.22497 z"
           id="path957"
           transform="matrix(0.26458333,0,0,0.26458333,60.205951,26.944047)" />
      </g>
    </g>
  </g>
</svg>
