<?xml version="1.0" encoding="utf-8"?><!-- Uploaded to: SVG Repo, www.svgrepo.com, Generator: SVG Repo Mixer Tools -->
<svg fill="#d7d7d7" width="800px" height="800px" viewBox="0 0 16 16" id="save-16px" xmlns="http://www.w3.org/2000/svg">
  <path id="Path_42" data-name="Path 42" d="M-5.732,2.97-7.97.732a2.474,2.474,0,0,0-1.483-.7A.491.491,0,0,0-9.591,0H-18.5A2.5,2.5,0,0,0-21,2.5v11A2.5,2.5,0,0,0-18.5,16h11A2.5,2.5,0,0,0-5,13.5V4.737A2.483,2.483,0,0,0-5.732,2.97ZM-13,1V5.455h-3.591V1Zm-4.272,14V10.545h8.544V15ZM-6,13.5A1.5,1.5,0,0,1-7.5,15h-.228V10.045a.5.5,0,0,0-.5-.5h-9.544a.5.5,0,0,0-.5.5V15H-18.5A1.5,1.5,0,0,1-20,13.5V2.5A1.5,1.5,0,0,1-18.5,1h.909V5.955a.5.5,0,0,0,.5.5h7.5a.5.5,0,0,0,.5-.5v-4.8a1.492,1.492,0,0,1,.414.285l2.238,2.238A1.511,1.511,0,0,1-6,4.737Z" transform="translate(21)"/>
</svg>
