<svg width="223" height="223" xmlns="http://www.w3.org/2000/svg">
 <!-- Created with Method Draw - http://github.com/duopixel/Method-Draw/ -->
 <g>
  <title>background</title>
  <rect fill="none" id="canvas_background" height="225" width="225" y="-1" x="-1"/>
  <g display="none" overflow="visible" y="0" x="0" height="100%" width="100%" id="canvasGrid">
   <rect fill="url(#gridpattern)" stroke-width="0" y="0" x="0" height="100%" width="100%"/>
  </g>
 </g>
 <g>
  <title>Layer 1</title>
  <path id="svg_1" d="m111.499982,3.500023c-59.646658,0 -107.999967,48.353386 -107.999967,107.999967c0,59.647903 48.353308,107.999993 107.999967,107.999993c59.647946,0 107.999993,-48.352082 107.999993,-107.999993c0,-59.646581 -48.352047,-107.999967 -107.999993,-107.999967zm-9.236728,48.553238l17.983007,0l0,19.128161l-17.983007,0l0,-19.128161zm29.760957,116.085726l-19.780144,0c-7.684691,0 -10.961591,-3.269729 -10.961591,-11.117474l0,-51.012233c0,-2.452006 -1.306774,-3.597168 -3.595768,-3.597168l-6.539459,0l0,-17.662679l19.781535,0c7.690393,0 10.953072,3.432714 10.953072,11.116049l0,51.176601c0,2.296157 1.306782,3.597237 3.595768,3.597237l6.539537,0l0,17.499659l0.00705,0l0,0.000009z" stroke-width="1.5" stroke="#000" fill="#bbb8b8"/>
 </g>
</svg>
