<svg width="172" height="172" xmlns="http://www.w3.org/2000/svg">
 <!-- Created with Method Draw - http://github.com/duopixel/Method-Draw/ -->
 <g>
  <title>background</title>
  <rect fill="none" id="canvas_background" height="174" width="174" y="-1" x="-1"/>
  <g display="none" overflow="visible" y="0" x="0" height="100%" width="100%" id="canvasGrid">
   <rect fill="url(#gridpattern)" stroke-width="0" y="0" x="0" height="100%" width="100%"/>
  </g>
 </g>
 <g>
  <title>Layer 1</title>
  <path id="svg_1" d="m139.382578,14.249727l-18.982996,-11.931355c-4.78947,-3.007365 -11.100429,-1.559921 -14.118291,3.230549l-7.482272,11.909092l36.315275,22.808817l7.488173,-11.903564c3.006409,-4.796172 1.57156,-11.112875 -3.219889,-14.113539l0,0zm-105.206717,106.097424l36.317254,22.808582l59.191104,-94.22748l-36.334543,-22.814538l-59.173821,94.233429l0.000006,0.000006zm-5.547453,28.979153l-0.802118,21.42371l18.953876,-10.02532l17.613535,-9.299898l-35.036418,-22.018086l-0.728868,19.9196l0,0l-0.000006,-0.000006z" stroke-width="1.5" stroke="none" fill="green"/>
 </g>
</svg>
