<svg width="232" height="232" xmlns="http://www.w3.org/2000/svg">
 <!-- Created with Method Draw - http://github.com/duopixel/Method-Draw/ -->
 <g>
  <title>background</title>
  <rect fill="none" id="canvas_background" height="234" width="234" y="-1" x="-1"/>
  <g display="none" overflow="visible" y="0" x="0" height="100%" width="100%" id="canvasGrid">
   <rect fill="url(#gridpattern)" stroke-width="0" y="0" x="0" height="100%" width="100%"/>
  </g>
 </g>
 <g>
  <title>Layer 1</title>
  <path id="svg_2" d="m116.249977,0.749996c-63.791862,0 -115.499977,51.711165 -115.499977,115.500022c0,63.792136 51.708115,115.499968 115.499977,115.499968c63.788876,0 115.500013,-51.707832 115.500013,-115.499968c0,-63.788858 -51.711128,-115.500022 -115.500013,-115.500022zm10.552801,182.023345l-21.511705,0l0,-20.629285l21.511705,0l0,20.629285zm0,-42.656193l0,6.817814l-21.511705,0l0,-8.400447c0,-25.349282 28.847653,-29.371968 28.847653,-47.388589c0,-8.215218 -7.345234,-14.508297 -16.96127,-14.508297c-9.964527,0 -18.704243,7.34212 -18.704243,7.34212l-12.247236,-15.218234c0,0 12.071466,-12.589655 32.876448,-12.589655c19.762633,0 38.112195,12.238096 38.112195,32.870404c0.009222,28.862919 -30.411843,32.191492 -30.411843,51.074874l0,0.000009z" stroke-width="3" stroke="whitesmoke" fill="none"/>
 </g>
</svg>
