<?xml version="1.0" standalone="no"?>
<!DOCTYPE svg PUBLIC "-//W3C//DTD SVG 20010904//EN"
 "http://www.w3.org/TR/2001/REC-SVG-20010904/DTD/svg10.dtd">
<svg version="1.0" xmlns="http://www.w3.org/2000/svg"
 width="380.000000pt" height="380.000000pt" viewBox="0 0 380.000000 380.000000"
 preserveAspectRatio="xMidYMid meet">
<metadata>
Created by potrace 1.14, written by Peter Selinger 2001-2017
</metadata>
<g transform="translate(0.000000,380.000000) scale(0.100000,-0.100000)"
fill="#000000" stroke="none">
<path d="M1790 3160 c0 -18 -7 -20 -60 -20 -53 0 -60 -2 -60 -20 0 -18 -7 -20
-80 -20 -73 0 -80 -2 -80 -20 0 -18 -7 -20 -60 -20 -53 0 -60 -2 -60 -20 0
-17 -7 -20 -40 -20 -33 0 -40 -3 -40 -20 0 -17 -7 -20 -40 -20 l-40 0 0 -40 0
-40 -40 0 c-33 0 -40 3 -40 20 0 18 -7 20 -60 20 -53 0 -60 2 -60 20 0 18 -7
20 -60 20 -53 0 -60 2 -60 20 0 18 -7 20 -60 20 -53 0 -60 2 -60 20 0 13 -7
20 -20 20 -13 0 -20 7 -20 20 0 18 -7 20 -60 20 -53 0 -60 -2 -60 -20 0 -17
-7 -20 -40 -20 l-40 0 0 -160 c0 -153 1 -160 20 -160 13 0 20 -7 20 -20 0 -13
7 -20 20 -20 18 0 20 -7 20 -60 0 -53 2 -60 20 -60 17 0 20 -7 20 -40 0 -33 3
-40 20 -40 17 0 20 -7 20 -40 0 -33 3 -40 20 -40 17 0 20 -7 20 -40 0 -33 -3
-40 -20 -40 -13 0 -20 -7 -20 -20 0 -13 -7 -20 -20 -20 -18 0 -20 -7 -20 -80
0 -73 -2 -80 -20 -80 -19 0 -20 -7 -20 -160 0 -153 1 -160 20 -160 19 0 20 -7
20 -100 0 -93 1 -100 20 -100 19 0 20 -7 20 -140 0 -133 1 -140 20 -140 13 0
20 -7 20 -20 0 -13 7 -20 20 -20 17 0 20 -7 20 -40 l0 -40 40 0 c33 0 40 -3
40 -20 0 -13 7 -20 20 -20 13 0 20 -7 20 -20 0 -13 7 -20 20 -20 13 0 20 -7
20 -20 0 -17 7 -20 40 -20 33 0 40 -3 40 -20 0 -18 7 -20 80 -20 l80 0 0 -40
c0 -33 3 -40 20 -40 17 0 20 -7 20 -40 l0 -40 80 0 80 0 0 -40 0 -40 40 0 40
0 0 -40 c0 -33 3 -40 20 -40 13 0 20 -7 20 -20 0 -13 7 -20 20 -20 13 0 20 -7
20 -20 0 -18 7 -20 60 -20 53 0 60 -2 60 -20 0 -13 7 -20 20 -20 17 0 20 -7
20 -40 l0 -40 40 0 c33 0 40 -3 40 -20 0 -13 7 -20 20 -20 17 0 20 -7 20 -40
0 -33 3 -40 20 -40 13 0 20 -7 20 -20 0 -17 7 -20 40 -20 l40 0 0 40 0 40 40
0 40 0 0 40 0 40 40 0 c33 0 40 3 40 20 0 17 7 20 40 20 l40 0 0 40 0 40 40 0
c33 0 40 3 40 20 0 13 7 20 20 20 13 0 20 7 20 20 0 18 7 20 60 20 53 0 60 2
60 20 0 13 7 20 20 20 17 0 20 7 20 40 l0 40 40 0 c33 0 40 3 40 20 0 13 7 20
20 20 13 0 20 7 20 20 0 18 7 20 60 20 53 0 60 2 60 20 0 13 7 20 20 20 13 0
20 7 20 20 0 13 7 20 20 20 13 0 20 7 20 20 0 17 7 20 40 20 33 0 40 3 40 20
0 13 7 20 20 20 18 0 20 7 20 60 0 53 2 60 20 60 17 0 20 7 20 40 0 33 3 40
20 40 13 0 20 7 20 20 0 13 7 20 20 20 17 0 20 7 20 40 0 33 3 40 20 40 18 0
20 7 20 80 0 73 2 80 20 80 19 0 20 7 20 100 0 93 1 100 20 100 13 0 20 7 20
20 0 13 7 20 20 20 19 0 20 7 20 120 0 113 -1 120 -20 120 -19 0 -20 7 -20
100 0 93 -1 100 -20 100 -17 0 -20 7 -20 40 l0 40 -40 0 c-33 0 -40 3 -40 20
0 13 7 20 20 20 13 0 20 7 20 20 0 13 7 20 20 20 17 0 20 7 20 40 0 33 3 40
20 40 13 0 20 7 20 20 0 13 7 20 20 20 17 0 20 7 20 40 0 33 3 40 20 40 17 0
20 7 20 40 0 33 3 40 20 40 19 0 20 7 20 120 0 113 -1 120 -20 120 -18 0 -20
7 -20 60 0 53 -2 60 -20 60 -13 0 -20 7 -20 20 0 18 -7 20 -80 20 -73 0 -80
-2 -80 -20 0 -17 -7 -20 -40 -20 -33 0 -40 -3 -40 -20 0 -17 -7 -20 -40 -20
-33 0 -40 -3 -40 -20 0 -17 -7 -20 -40 -20 -33 0 -40 -3 -40 -20 0 -18 -7 -20
-60 -20 -53 0 -60 -2 -60 -20 0 -18 -7 -20 -80 -20 l-80 0 0 40 0 40 -40 0
c-33 0 -40 3 -40 20 0 17 -7 20 -40 20 -33 0 -40 3 -40 20 0 13 -7 20 -20 20
-13 0 -20 7 -20 20 0 13 -7 20 -20 20 -13 0 -20 7 -20 20 0 18 -7 20 -80 20
-73 0 -80 2 -80 20 0 18 -7 20 -60 20 -53 0 -60 -2 -60 -20 0 -17 -7 -20 -40
-20 -33 0 -40 3 -40 20 0 18 -7 20 -60 20 -53 0 -60 -2 -60 -20z"/>
</g>
</svg>
